<svg fill="none" height="25" viewBox="0 0 24 25" width="24" xmlns="http://www.w3.org/2000/svg" xmlns:xlink="http://www.w3.org/1999/xlink"><mask id="a" fill="#fff"><path d="m18.7668 5.77116c.0558.1181.1361.19701.2251.22112s.1802-.00834.2555-.09093l2.1895-2.39936c.0396-.04315.0738-.09892.1005-.16411s.0454-.13851.055-.21578c.0097-.07726.0101-.15694.0012-.23447-.0088-.07753-.0268-.15138-.0528-.21732s-.0596-.12268-.0988-.16696-.0832-.07523-.1296-.09108-.0942-.01628-.1407-.00127c-.0465.015-.0907.04515-.1302.08872l-1.9133 2.09665-.4854-1.02819c-.0591-.12502-.1455-.20585-.2403-.22469-.0947-.01884-.1901.02585-.2652.12423-.075.09838-.1235.2424-.1348.40037s.0155.31696.0746.44198z" fill="#fff"/></mask><g fill="#070e17"><path d="m8.9856 15.2008c1.7868-1.2288 3.0144-3.6696 3.0144-5.8008 0-2.9772-2.4228-5.4-5.4-5.4s-5.4 2.4228-5.4 5.4c0 2.1312 1.2276 4.572 3.0144 5.8008-1.5744.6396-4.2144 1.9812-4.2144 3.7992v4.8c0 .3312.2688.6.6.6h12c.3312 0 .6-.2688.6-.6v-4.8c0-1.818-2.64-3.1596-4.2144-3.7992zm-6.5856-5.8008c0-2.316 1.884-4.2 4.2-4.2s4.2 1.884 4.2 4.2c0 2.3796-1.9776 5.4-4.2 5.4s-4.2-3.0204-4.2-5.4zm9.6 13.8h-10.8v-4.2c0-1.0692 2.4828-2.382 4.2984-3h2.2044c1.8144.618 4.2972 1.9308 4.2972 3z"/><path d="m24 4.2c0-2.316-1.884-4.2-4.2-4.2s-4.2 1.884-4.2 4.2c0 1.14.4596 2.1732 1.2 2.9292v6.6708c0 .2424.1464.462.3708.5544.2256.0924.4824.042.654-.1296l1.9752-1.9752 1.9752 1.9752c.1152.114.2688.1752.4248.1752.0768 0 .1548-.0156.2292-.0456.2244-.0924.3708-.312.3708-.5544v-6.6c0-.0204-.0096-.036-.0108-.0564.7464-.7584 1.2108-1.7976 1.2108-2.9436zm-4.2-3c1.6536 0 3 1.3452 3 3s-1.3464 3-3 3-3-1.3452-3-3 1.3464-3 3-3zm.4248 9.7752c-.234-.234-.6144-.234-.8484 0l-1.3764 1.3764v-4.374c.5484.2628 1.1532.4224 1.8.4224s1.2516-.1596 1.8-.4224v4.374z"/><path d="m8.3771 16.0442c-.0072-.0066-.01576-.0119-.02519-.0154-.00943-.0036-.01954-.0055-.02976-.0055-.01021 0-.02033.0019-.02976.0055-.00943.0035-.01799.0088-.02518.0154l-.93483.8548c-.00736-.0087-.01538-.017-.02399-.0247l-.32425-.2993.92864-.8541c.01457-.0133.02276-.0313.02276-.0501s-.00819-.0368-.02276-.0501-.03434-.0208-.05495-.0208c-.0206 0-.04037.0075-.05494.0208l-.95186.8682c-.07876-.0386-.16676-.0587-.25615-.0587-.08938 0-.17738.0201-.25614.0587l-.95186-.8682c-.01511-.009-.03322-.0129-.05117-.0111-.01795.0019-.03461.0094-.04711.0213s-.02004.0274-.02131.0439c-.00127.0164.0038.0327.01435.0461l.93405.8534-.32812.2993c-.00861.0077-.01663.0159-.02399.0247l-.9387-.8541c-.015-.0106-.03377-.0159-.05273-.0147s-.03678.0087-.05008.021c-.01329.0124-.02112.0289-.022.0462s.00526.0343.01725.0477l.95882.876c-.04238.0856-.0571.1805-.04244.2736.01467.093.05811.1802.12524.2515l-.50456 3.9047c-.00131.0096-.00048.0192.00245.0285.00292.0092.00788.0178.01457.0252l1.16622 1.2705c.00726.008.01637.0144.02666.0188.0103.0045.02155.0067.03293.0067s.02262-.0022.03292-.0067c.0103-.0044.0194-.0108.02666-.0188l1.16622-1.2705c.00669-.0074.01165-.016.01458-.0252.00292-.0093.00376-.0189.00244-.0285l-.50456-3.9047c.06713-.0713.11057-.1585.12524-.2515.01467-.0931-.00005-.188-.04243-.2736l.95882-.876c.00725-.0065.01301-.0143.01694-.0229s.00595-.0179.00595-.0272-.00202-.0185-.00595-.0271-.00969-.0164-.01694-.023zm-.92864 3.5447-1.75358.4299.06578-.5103 1.62512-.3981zm.13697 1.0934-2.04145.5011.06577-.5096 1.9161-.4687zm.09519.7545-1.08341 1.1823-.79244-.8632 1.85728-.4567zm-1.83561-2.5841.06655-.5103 1.3295-.3268.06191.4786z"/><path d="m18.7668 5.77116c.0558.1181.1361.19701.2251.22112s.1802-.00834.2555-.09093l2.1895-2.39936c.0396-.04315.0738-.09892.1005-.16411s.0454-.13851.055-.21578c.0097-.07726.0101-.15694.0012-.23447-.0088-.07753-.0268-.15138-.0528-.21732s-.0596-.12268-.0988-.16696-.0832-.07523-.1296-.09108-.0942-.01628-.1407-.00127c-.0465.015-.0907.04515-.1302.08872l-1.9133 2.09665-.4854-1.02819c-.0591-.12502-.1455-.20585-.2403-.22469-.0947-.01884-.1901.02585-.2652.12423-.075.09838-.1235.2424-.1348.40037s.0155.31696.0746.44198z"/><path d="m18.7668 5.77116.9044-.42686-.0001-.00005zm.4806.13019-.7387-.67407-.0002.00023zm2.1895-2.39936-.7364-.6766-.0023.00253zm-.3954-1.00227.7387.67408.0023-.00254zm-1.9133 2.09665-.9043.4269.637 1.34947 1.0059-1.10229zm-.4854-1.02819.9043-.4269-.0001-.00004zm-.5657.74189.9043-.42691-.0001-.00003zm-.2146 1.88795c.1268.26864.3933.6309.8679.75947l.523-1.93041c.1502.04068.2535.11681.3143.17658.0603.05923.0902.11265.1035.14064zm.8679.75947c.5347.14485.9925-.09355 1.2559-.38231l-1.4778-1.34767c.0525-.05757.1437-.13393.281-.18279.1437-.05116.3068-.06019.4639-.01764zm1.2557-.38208 2.1895-2.39936-1.4774-1.34813-2.1895 2.39936zm2.1871-2.39682c.1342-.14604.2269-.30851.2896-.46179l-1.8508-.75784c.0093-.02289.0337-.07383.0885-.13357zm.2896-.46179c.0634-.15491.1025-.31498.1219-.4707l-1.9845-.248c.0001-.00139.0007-.00496.0021-.01081.0015-.00577.0043-.01536.0097-.02833zm.1219-.4707c.0196-.15626.0203-.31567.0025-.47197l-1.9871.22701c-.0001-.00066-.0001-.00103-.0001-.00117 0-.00008 0-.00012 0-.00014 0-.00001 0-.00002 0-.00002s0-.00002 0-.00005 0-.0001 0-.00021c0-.0002.0001-.00067.0002-.00145zm.0025-.47197c-.0178-.15578-.055-.31578-.1161-.47081l-1.8605.73398c-.0048-.01226-.0074-.02122-.0086-.02649-.0013-.00535-.0018-.00853-.0019-.00967zm-.1161-.47081c-.0606-.15342-.1502-.31583-.2803-.4628l-1.4975 1.32566c-.0517-.05841-.0742-.10735-.0827-.12888zm-.2803-.4628c-.1304-.14732-.314-.29217-.5551-.37455l-.6466 1.8926c-.1483-.05068-.2438-.13363-.2958-.19239zm-.5551-.37455c-.2497-.08531-.5187-.08813-.7712-.00662l.6144 1.9033c-.1595.05149-.3329.04953-.4898-.00408zm-.7712-.00662c-.244.07877-.4309.22195-.564.36884l1.482 1.34307c-.0542.05975-.1525.14262-.3036.19139zm-.5617.36629-1.9133 2.09666 1.4773 1.34815 1.9133-2.09665zm-.2703 2.34383-.4854-1.02819-1.8086.8538.4854 1.02819zm-.4855-1.02823c-.1326-.28095-.4252-.67434-.9495-.77856l-.3899 1.96162c-.1678-.03334-.2855-.1133-.3546-.17795-.068-.06355-.1007-.12201-.1145-.15122zm-.9495-.77856c-.5799-.11526-1.0261.19809-1.2554.49869l1.5905 1.21269c-.0402.05262-.1176.13308-.2459.19316-.1356.06355-.3044.09181-.4791.05708zm-1.2554.49869c-.222.29127-.3157.63714-.337.93534l1.9949.14276c0 .00031-.0002.00217-.0009.00576-.0007.00352-.0022.01005-.0053.01945-.0054.01584-.0212.0568-.0612.10938zm-.337.93534c-.0218.30407.0252.63854.1677.94031l1.8085-.85389c.0076.01599.0119.02833.0143.03621.0024.00797.0035.01325.0039.0158.0004.00261.0005.00381.0005.00388v.00045zm.1677.94027.6897 1.46109 1.8086-.85382-.6897-1.46109z" mask="url(#a)"/></g></svg>