<svg fill="none" height="52" viewBox="0 0 52 52" width="52" xmlns="http://www.w3.org/2000/svg"><g fill="#000"><path d="m25.7612 22.5843c.2418 0 .4736-.0961.6446-.267s.267-.4028.267-.6445c0-.2418-.096-.4736-.267-.6446-.171-.1709-.4028-.267-.6446-.267-1.0816 0-2.1391-.3208-3.0384-.9216-.8994-.601-1.6004-1.4551-2.0144-2.4545-.4139-.9994-.5222-2.099-.3112-3.1599s.7319-2.0354 1.4968-2.8003 1.7394-1.2858 2.8002-1.49677c1.061-.21103 2.1606-.10272 3.16.31117.9993.414 1.8534 1.115 2.4544 2.0144s.9217 1.9568.9217 3.0384v1.8231c0 .2417-.096.4736-.2669.6445-.171.1709-.4028.267-.6446.267-.2417 0-.4736-.0961-.6445-.267-.171-.1709-.267-.4028-.267-.6445v-1.8231c0-.7211-.2139-1.426-.6145-2.0256s-.9701-1.0669-1.6363-1.3429-1.3993-.3482-2.1065-.2075c-.7073.1407-1.357.488-1.8669.9979s-.8572 1.1596-.9979 1.8668c-.1407.7073-.0684 1.4404.2075 2.1066.276.6663.7433 1.2357 1.3429 1.6364.5996.4006 1.3045.6144 2.0256.6144.7476-.0025 1.4763-.2349 2.0874-.6654.2657.5596.7136 1.0124 1.2702 1.2843.5566.2718 1.189.3467 1.7937.2122.6048-.1346 1.1458-.4703 1.5348-.9526.3889-.4821.6026-1.082.6061-1.7015v-1.8231c0-1.4422-.4277-2.8521-1.229-4.0513-.8012-1.1991-1.9401-2.13379-3.2726-2.68572-1.3324-.55192-2.7986-.69633-4.2132-.41496-1.4145.28137-2.7138.97587-3.7337 1.99568-1.0198 1.0198-1.7143 2.3192-1.9957 3.7337s-.1369 2.8807.415 4.2132 1.4866 2.4713 2.6857 3.2726c1.1992.8013 2.6091 1.229 4.0513 1.229zm0-5.4691c-.3606 0-.713-.107-1.0128-.3072-.2998-.2004-.5334-.4851-.6714-.8182s-.1741-.6997-.1038-1.0533c.0704-.3537.244-.6785.499-.9334.2549-.255.5797-.4286.9334-.499.3536-.0703.7201-.0342 1.0533.1038.3331.138.6178.3716.8181.6714.2004.2998.3073.6523.3073 1.0128 0 .4835-.1921.9472-.534 1.2891s-.8056.534-1.2891.534zm12.4058 1.1029-2.7346-2.1056c-.192-.1302-.4264-.1823-.6556-.1456-.2291.0366-.4356.1593-.5774.343-.1418.1836-.2082.4144-.1857.6454.0224.2309.1321.4445.3067.5974l1.823 1.3855-10.3822 7.9667-10.3548-7.9667 1.823-1.3855c.191-.1511.3142-.3719.3424-.6138.0282-.2418-.0409-.485-.192-.676s-.3718-.3141-.6137-.3423-.4851.0408-.6761.1919l-2.7345 2.1056c-.1103.0849-.1997.194-.2613.3188-.0617.1248-.0939.2621-.0942.4013v11.8497c0 .7252.2881 1.4208.8009 1.9336.5129.5129 1.2084.801 1.9336.801h20.0534c.7252 0 1.4208-.2881 1.9336-.801.5129-.5128.801-1.2084.801-1.9336v-11.8497c-.0004-.1392-.0326-.2765-.0942-.4013s-.151-.2339-.2613-.3188zm-2.3791 13.4813h-20.0534c-.2417 0-.4735-.096-.6445-.2669-.1709-.171-.267-.4029-.267-.6446v-10.0267l10.3822 7.9849c.1594.1227.3549.1893.556.1893.2012 0 .3967-.0666.556-.1893l10.3822-7.9849v10.0267c0 .2417-.096.4736-.2669.6446-.171.1709-.4029.2669-.6446.2669z"/><path d="m20.4898 41.3067h1.363c-.0436.5197-.189.9831-.4362 1.3902-.2472.4035-.5943.7216-1.0413.9542-.4471.2326-.9905.3489-1.6302.3489-.4907 0-.9324-.0873-1.3249-.2617-.3926-.1781-.7288-.4289-1.0087-.7524-.2799-.3271-.4943-.7215-.6433-1.1832-.1454-.4615-.2181-.9777-.2181-1.5484v-.6596c0-.5707.0745-1.0868.2235-1.5485.1527-.4616.3708-.856.6543-1.1831.2835-.3307.6233-.5834 1.0195-.7578.3999-.1746.8488-.2617 1.3467-.2617.6325 0 1.1668.1163 1.603.3489.4361.2326.7742.5542 1.0141.965.2435.4107.3925.8815.447 1.4121h-1.363c-.0363-.3417-.1163-.6342-.2399-.8778-.1199-.2435-.298-.4289-.5343-.5561-.2363-.1309-.5452-.1963-.9269-.1963-.3126 0-.5852.0582-.8178.1745s-.4271.2872-.5834.5125c-.1563.2254-.2744.5034-.3544.8342-.0763.3271-.1145.7015-.1145 1.1231v.6706c0 .3999.0346.7634.1036 1.0905.0727.3235.1818.6015.3271.8342.1491.2326.3381.4125.5671.5398.229.1272.5034.1907.8233.1907.3889 0 .7033-.0617.9432-.1853.2435-.1236.4271-.3035.5507-.5397.1272-.2399.2108-.5326.2508-.8778zm7.8021 1.4992v1.0851h-4.2146v-1.0851zm-3.8275-6.8533v7.9384h-1.3685v-7.9384zm3.2768 3.3149v1.0687h-3.6639v-1.0687zm.5234-3.3149v1.0904h-4.1873v-1.0904zm7.4749 3.7511v.4362c0 .5997-.0781 1.1376-.2344 1.6138-.1563.4761-.3798.8815-.6706 1.2158-.2871.3344-.6325.5907-1.036.7688-.4034.1744-.8505.2617-1.3412.2617-.4871 0-.9323-.0873-1.3358-.2617-.3998-.1781-.7469-.4344-1.0414-.7688-.2944-.3343-.5233-.7397-.6869-1.2158-.1599-.4762-.2399-1.0141-.2399-1.6138v-.4362c0-.5998.08-1.1359.2399-1.6084.1599-.4762.3853-.8814.6761-1.2158.2944-.3381.6415-.5943 1.0413-.7688.4035-.1781.8488-.2671 1.3358-.2671.4907 0 .9378.089 1.3413.2671.4034.1745.7506.4307 1.0413.7688.2908.3344.5143.7396.6707 1.2158.1599.4725.2398 1.0086.2398 1.6084zm-1.3685.4362v-.4471c0-.4435-.0436-.8342-.1308-1.1722-.0837-.3417-.209-.627-.3762-.856-.1636-.2327-.3653-.4072-.6052-.5235-.2399-.1199-.5107-.1799-.8124-.1799s-.5707.06-.8069.1799c-.2363.1163-.438.2908-.6052.5235-.1636.229-.289.5143-.3763.856-.0871.338-.1308.7287-.1308 1.1722v.4471c0 .4434.0437.836.1308 1.1776.0873.3417.2145.6306.3818.867.1708.2325.3744.4088.6106.5288.2362.1163.5053.1745.8069.1745.3053 0 .5761-.0582.8124-.1745.2363-.12.4361-.2963.5997-.5288.1636-.2364.2871-.5253.3708-.867.0872-.3416.1308-.7342.1308-1.1776z"/></g></svg>