<svg fill="none" height="84" viewBox="0 0 96 84" width="96" xmlns="http://www.w3.org/2000/svg"><g fill="#808285"><path d="m47.7001 54.2 15.7-16.9c1.8-1.9 1.6-4.8-.2-6.6-1.9-1.8-4.8-1.6-6.6.2l-12.3 13.3-5.6-6c-1.8-1.9-4.7-2-6.6-.2s-2 4.7-.2 6.6l9 9.7c1.8 1.9 5 1.9 6.8-.1z"/><path d="m87.4 31h-3.1c-3-17.6-18.4-31-36.8-31s-33.7 13.4-36.8 31h-3c-4.2 0-7.7 3.5-7.7 7.7v12.9c0 2.1.8 4 2.3 5.5 1.5 1.4 3.4 2.2 5.4 2.2h6.9c2 0 3.6-1.6 3.6-3.6v-18.4c0-16.1 13.1-29.2 29.2-29.2s29.2 13.1 29.2 29.2v25.1c0 6.6-5.4 12-12 12h-6.6c-.5-2.1-2.3-3.6-4.6-3.6h-11.9c-2.7 0-4.8 2.2-4.8 4.8v3.3c0 2.7 2.2 4.8 4.8 4.8h12.1c2.2 0 4-1.6 4.6-3.6h6.6c9.7 0 17.7-7.9 17.7-17.7v-3.2h4.9c2 0 4-.8 5.4-2.2 1.5-1.5 2.3-3.4 2.3-5.5v-12.8c0-4.2-3.4-7.6-7.7-7.7z"/></g></svg>