<svg fill="none" height="52" viewBox="0 0 52 52" width="52" xmlns="http://www.w3.org/2000/svg" xmlns:xlink="http://www.w3.org/1999/xlink"><clipPath id="a"><path d="m5 16h42v19h-42z"/></clipPath><g clip-path="url(#a)" fill="#000"><path d="m46.1634 15.9952h-27.1105c-.4621 0-.8366.374-.8366.8353v1.5753h-7.9743c-.46205 0-.8366.3739-.8366.8352 0 .4614.37455.8353.8366.8353h7.9743v10.8474h-4.7661c-.4621 0-.8366.3739-.8366.8352 0 .4614.3745.8353.8366.8353h4.7661v1.5753c0 .4613.3745.8352.8366.8352h27.1105c.462 0 .8366-.3739.8366-.8352v-17.339c0-.4613-.3746-.8353-.8366-.8353zm-2.064 1.6706-11.4901 9.4168-11.4377-9.4168zm1.2273 15.6685h-25.4371v-14.5588l12.1863 10.0332c.1545.1272.3434.1909.5323.1909.1882 0 .3766-.0632.5308-.1897l12.1877-9.9886z"/><path d="m14.8169 24.5801h-8.98026c-.46209 0-.83664.374-.83664.8353s.37455.8353.83664.8353h8.98026c.4621 0 .8367-.374.8367-.8353s-.3746-.8353-.8367-.8353z"/><path d="m10.6893 30.9238h-.4471c-.46213 0-.83668.3739-.83668.8352 0 .4614.37455.8353.83668.8353h.4471c.4621 0 .8366-.3739.8366-.8353 0-.4613-.3745-.8352-.8366-.8352z"/></g></svg>