<svg fill="none" height="52" viewBox="0 0 52 52" width="52" xmlns="http://www.w3.org/2000/svg"><path d="m39 26.1527c0 7.2635-5.9341 13.1518-13.2557 13.1518-2.3234 0-4.506-.5943-6.406-1.635l-7.3383 2.3305 2.3921-7.0584c-1.2062-1.9809-1.9008-4.307-1.9008-6.7898.0009-7.2635 5.9332-13.1518 13.2548-13.1518 7.3207.0018 13.2539 5.8892 13.2539 13.1527zm-13.2566-11.0555c-6.1445 0-11.1426 4.9603-11.1426 11.0581 0 2.4194.7888 4.6592 2.1227 6.4817l-1.3911 4.1054 4.2806-1.3602c1.7609 1.1551 3.8677 1.8277 6.1304 1.8277 6.1445 0 11.1445-4.9594 11.1445-11.0572.0017-6.0952-4.9991-11.0555-11.1445-11.0555zm6.6948 14.085c-.0828-.1329-.2994-.2139-.6233-.3759-.3232-.162-1.9229-.9412-2.2196-1.0469-.2993-.1082-.5159-.1628-.7325.1603-.214.3231-.8373 1.0486-1.0284 1.2652-.1892.2157-.3785.243-.7034.0836-.3249-.1638-1.3726-.5018-2.614-1.5997-.9658-.8558-1.6182-1.9097-1.8066-2.2328-.1911-.3222-.0194-.4966.1417-.6568.1453-.1453.3249-.3768.4878-.5661.1629-.1875.2166-.3205.3249-.5362.1065-.2157.0528-.4032-.0273-.5661-.081-.162-.7299-1.7468-1.002-2.3921-.2703-.6445-.5405-.538-.7307-.538-.1893 0-.4059-.0264-.6225-.0264s-.5687.0784-.8654.4015-1.1367 1.1023-1.1367 2.6888c0 1.5883 1.1631 3.1194 1.326 3.3342.1637.2139 2.2486 3.5763 5.551 4.867 3.3043 1.2898 3.3043.8593 3.8994.8047.597-.0546 1.9229-.7792 2.1923-1.5311.2712-.7554.2712-1.4025.1893-1.5372z" fill="#000"/></svg>